<svg xmlns="http://www.w3.org/2000/svg" viewBox="0 0 400 400" width="400" height="400">
  <defs>
    <linearGradient id="orangeGrad" x1="10%" y1="0%" x2="90%" y2="100%">
      <stop offset="0%" style="stop-color:#ff8c30"/>
      <stop offset="100%" style="stop-color:#e85400"/>
    </linearGradient>
    <linearGradient id="shineGrad" x1="0%" y1="0%" x2="60%" y2="100%">
      <stop offset="0%" style="stop-color:rgba(255,255,255,0.15)"/>
      <stop offset="100%" style="stop-color:rgba(255,255,255,0)"/>
    </linearGradient>
    <filter id="shadow">
      <feDropShadow dx="0" dy="10" stdDeviation="20" flood-color="rgba(220,80,0,0.30)"/>
    </filter>
  </defs>

  <rect width="400" height="400" rx="88" fill="#ffffff"/>

  <ellipse cx="200" cy="348" rx="74" ry="10" fill="rgba(232,84,0,0.10)"/>

  <g filter="url(#shadow)">
    <path d="
      M 120 68
      H 280
      V 316
      L 268 305
      L 256 316
      L 244 305
      L 232 316
      L 220 305
      L 208 316
      L 196 305
      L 184 316
      L 172 305
      L 160 316
      L 148 305
      L 136 316
      L 124 305
      L 112 316
      V 68
      Z"
      fill="url(#orangeGrad)"/>

    <path d="
      M 120 68
      H 280
      V 316
      L 268 305
      L 256 316
      L 244 305
      L 232 316
      L 220 305
      L 208 316
      L 196 305
      L 184 316
      L 172 305
      L 160 316
      L 148 305
      L 136 316
      L 124 305
      L 112 316
      V 68
      Z"
      fill="url(#shineGrad)"/>
  </g>

  <rect x="160" y="100" width="80" height="11" rx="5.5" fill="rgba(255,255,255,0.55)"/>
  <rect x="138" y="126" width="124" height="9" rx="4.5" fill="rgba(255,255,255,0.28)"/>
  <rect x="138" y="144" width="100" height="9" rx="4.5" fill="rgba(255,255,255,0.20)"/>
  <rect x="138" y="162" width="112" height="9" rx="4.5" fill="rgba(255,255,255,0.20)"/>

  <rect x="132" y="184" width="136" height="2" rx="1" fill="rgba(255,255,255,0.28)"/>

  <text
    x="200"
    y="272"
    font-family="'Noto Sans', 'Arial Unicode MS', sans-serif"
    font-size="88"
    font-weight="700"
    fill="white"
    text-anchor="middle"
    dominant-baseline="middle">&#x20B9;</text>

</svg>
